<svg id="Layer_1" data-name="Layer 1" xmlns="http://www.w3.org/2000/svg" viewBox="0 0 123 30"><defs><style>.cls-1{fill:#ff4d00}.cls-2{fill:#ff7d00}.cls-5{fill:#fff}</style></defs><path class="cls-1" d="M13.48 17.45l9.02 5.05.34-3.84-2.51-2.67-3.7-.61-3.15 2.07z"/><path class="cls-2" d="M15 0l7.5 22.5L30 15 15 0z"/><path fill="#001aff" d="M13.79 11.92l-.31 5.53L25 15l-11.21-3.08z"/><path fill="#e23400" d="M0 15l8.01 8.01 1.49-2-.27-2.4-3.67-2.38L0 15z"/><path class="cls-1" d="M14.19.81L0 15l9.23 3.61L14.19.81z"/><path class="cls-2" d="M9.23 18.61l-1.22 4.4L15 30l6.57-6.57-12.34-4.82z"/><path class="cls-5" d="M40.45 19.28h-1.41V7.93l1.41-.82v12.17zm62.78-10.11h-1.44V7.66h1.44v1.51z"/><path class="cls-5" d="M73.92 39a3.05 3.05 0 0 0-2.66 1.42v-1.27h-1.37v8.57h1.37v-4.89a2.33 2.33 0 0 1 2.32-2.54c1.33 0 2.13.91 2.13 2.44v5h1.37v-5.3a3.67 3.67 0 0 0-.83-2.49 3 3 0 0 0-2.33-.94zM88 39a4.15 4.15 0 0 0-3 1.31 4.58 4.58 0 0 0-1.21 3.14A4.3 4.3 0 0 0 88 47.92a4.17 4.17 0 0 0 3.07-1.33 4.57 4.57 0 0 0 1.22-3.14A4.31 4.31 0 0 0 88 39zm2.86 4.47A2.94 2.94 0 0 1 88 46.62a3 3 0 0 1-2.87-3.18A3 3 0 0 1 88 40.26a3 3 0 0 1 2.88 3.19zM95.33 41v-1.85H94v8.57h1.37v-3.43c0-2.28 1.21-3.82 3.09-3.82h.18V39h-.08a3.42 3.42 0 0 0-3.23 2zm13.87-2a3.2 3.2 0 0 0-2.81 1.58A2.79 2.79 0 0 0 103.8 39a2.91 2.91 0 0 0-2.5 1.39v-1.24h-1.37v8.57h1.37v-4.87a2.3 2.3 0 0 1 2.15-2.56c1.24 0 2 .9 2 2.41v5h1.37v-4.9a2.72 2.72 0 0 1 .62-1.86 2 2 0 0 1 1.49-.65c1.27 0 2 .89 2 2.44v5h1.37v-5.29c-.03-2.14-1.21-3.44-3.1-3.44zm18.13 1.44v-1.29h-2.58v-3l-1.37.8v2.18h-1.49v1.28h1.49v5a2.17 2.17 0 0 0 2.35 2.46 3 3 0 0 0 1.49-.37v-1.29l-.13.06a2.33 2.33 0 0 1-1.12.28c-.85 0-1.26-.43-1.26-1.31v-4.8zm11.39 4.96a3.14 3.14 0 0 1-2.39 1.22 3 3 0 0 1-2.86-3.18 3 3 0 0 1 2.78-3.16 3.11 3.11 0 0 1 2.37 1.24l.07.07.91-1-.05-.06a4.14 4.14 0 0 0-3.27-1.53 4 4 0 0 0-3 1.33 4.62 4.62 0 0 0-1.2 3.14 4.57 4.57 0 0 0 1.2 3.12 4.05 4.05 0 0 0 3 1.32 4.18 4.18 0 0 0 3.34-1.65l.05-.06-.89-.87zM117.48 39a6.52 6.52 0 0 0-3 .71h-.07l.42 1.19h.09a5.3 5.3 0 0 1 2.4-.61c1.47 0 2.32.68 2.32 2.24h-2.39c-2.24 0-3.52 1-3.52 2.67a2.83 2.83 0 0 0 3.08 2.7 3.57 3.57 0 0 0 2.83-1.28v1.1H121v-5.21a3.68 3.68 0 0 0-.85-2.58 3.52 3.52 0 0 0-2.67-.93zm2.19 4.62v1a2.36 2.36 0 0 1-2.6 2.18c-1.32 0-1.93-.82-1.93-1.58 0-.69.39-1.52 2.25-1.52zM81 38.36c0-1.23.32-1.7 1.29-1.7a3.71 3.71 0 0 1 1.14.21h.08v-1.25a3.59 3.59 0 0 0-1.35-.22 2.39 2.39 0 0 0-1.79.68 3.15 3.15 0 0 0-.72 2.22v.86h-1.56v1.28h1.49v7.29H81v-7.29h2.58v-1.29H81z" transform="translate(-27.21 -28.45)"/><path class="cls-5" d="M103.2 19.28h-1.37v-8.57h1.37v8.57z"/><path class="cls-5" d="M144.23 39a6.53 6.53 0 0 0-3 .71h-.07l.42 1.19h.09a5.3 5.3 0 0 1 2.4-.61c1.47 0 2.32.68 2.32 2.24H144c-2.24 0-3.52 1-3.52 2.67a2.83 2.83 0 0 0 3.08 2.7 3.57 3.57 0 0 0 2.83-1.28v1.1h1.31v-5.21a3.68 3.68 0 0 0-.85-2.58 3.52 3.52 0 0 0-2.62-.93zm2.19 4.62v1a2.36 2.36 0 0 1-2.6 2.18c-1.33 0-1.93-.82-1.93-1.58 0-.7.39-1.52 2.25-1.52zm2.14-4.3h-.31v-.16h.75v.16h-.31v.83h-.18zm.67-.17h.19l.3.47.3-.47h.19v1H150v-.71l-.31.47-.31-.47v.71h-.17z" transform="translate(-27.21 -28.45)"/></svg>