<?xml version="1.0" encoding="utf-8"?>
<!-- Generator: Adobe Illustrator 22.0.1, SVG Export Plug-In . SVG Version: 6.00 Build 0)  -->
<svg version="1.1" xmlns="http://www.w3.org/2000/svg" xmlns:xlink="http://www.w3.org/1999/xlink" x="0px" y="0px"
	 viewBox="0 0 20 20" enable-background="new 0 0 20 20" xml:space="preserve">
<g id="Layer_1">
</g>
<g id="Layer_2">
</g>
<g id="Layer_3">
	<g>
		<g>
			<g>
				<path fill-rule="evenodd" clip-rule="evenodd" fill="#DDDDDD" d="M9.8,11.6c0.2,0,0.4,0,0.5,0.1l0.1-0.3
					c-0.7-0.6-1.1-1.4-1.1-2.3c0-1.7,1.3-3,3-3c0.2,0,0.5,0,0.7,0.1V4c-1.3-1.3-3.3-3.3-4-4H1.9C0.8,0,0,0.8,0,1.9v12.4
					c0,1.1,0.8,1.9,1.9,1.9h3.4C5.3,13.6,7.3,11.6,9.8,11.6z"/>
				<path fill-rule="evenodd" clip-rule="evenodd" fill="#DDDDDD" d="M12.7,12.1l-0.1,0.5c0.1,0.1,0.1,0.1,0.2,0.2l0.2-0.1V12l0,0
					C12.9,12.1,12.8,12.1,12.7,12.1z"/>
			</g>
			<path fill-rule="evenodd" clip-rule="evenodd" fill="#ADD6FF" d="M9,0v2.3C9,3.3,9.8,4,10.7,4H13C13,4,8.9,0,9,0z"/>
			<g>
				<rect x="2.7" y="8.1" fill="#2473E4" width="5.4" height="1.4"/>
				<rect x="2.7" y="6.1" fill="#2473E4" width="7" height="1.4"/>
				<rect x="2.7" y="4.1" fill="#2473E4" width="5.4" height="1.4"/>
				<path fill="#2473E4" d="M7,12.6v-0.4H2.7v1.4h3.4C6.4,13.2,6.7,12.9,7,12.6z"/>
				<rect x="2.7" y="10.2" fill="#2473E4" width="6.4" height="1.4"/>
			</g>
		</g>
		<g>
			<g>
				<path fill="#BBBBBB" d="M16.6,12.3l-5.2-2.7L11.3,10l0.4,0.2l-1.1,4.5l0.4,0.1l0.1,0.3l5.4-2.3l0-0.1L16.6,12.3z M11.1,14.6
					l1.1-4.2l3.9,2L11.1,14.6z"/>
				<path fill="#FF580E" d="M9.9,17.1c-0.5,0-1-0.4-1-1c0-0.5,0.4-1,1-1c0.5,0,1,0.4,1,1C10.8,16.7,10.4,17.1,9.9,17.1z M13.7,16.8
					v-1.3h-1c-0.1-0.3-0.2-0.6-0.4-0.9l0.7-0.7L12.2,13l-0.7,0.7c-0.3-0.2-0.6-0.3-0.9-0.4v-1H9.2v1c-0.3,0.1-0.6,0.2-0.9,0.4
					L7.6,13l-0.9,0.9l0.7,0.7c-0.2,0.3-0.3,0.6-0.4,0.9H6v1.3h1c0.1,0.3,0.2,0.6,0.4,0.9l-0.7,0.7l0.9,0.9l0.7-0.7
					c0.3,0.2,0.6,0.3,0.9,0.4v1h1.3v-1c0.3-0.1,0.6-0.2,0.9-0.4l0.7,0.7l0.9-0.9l-0.7-0.7c0.2-0.3,0.3-0.6,0.4-0.9L13.7,16.8
					L13.7,16.8z"/>
				<path fill="#FF580E" d="M17.5,13.2c-0.3,0-0.6-0.3-0.6-0.6c0-0.3,0.3-0.6,0.6-0.6c0.3,0,0.6,0.3,0.6,0.6
					C18.1,12.9,17.9,13.2,17.5,13.2z M20,12.9v-0.6h-0.6c-0.1-0.3-0.2-0.6-0.3-0.8l0.5-0.5l-0.4-0.4l-0.5,0.5
					c-0.2-0.2-0.5-0.3-0.8-0.3v-0.6h-0.6v0.6c-0.3,0.1-0.6,0.2-0.8,0.3L16,10.6l-0.4,0.4l0.5,0.5c-0.2,0.2-0.3,0.5-0.3,0.8h-0.6v0.6
					h0.6c0.1,0.3,0.2,0.6,0.3,0.8l-0.5,0.5l0.4,0.4l0.5-0.5c0.2,0.2,0.5,0.3,0.8,0.3v0.6h0.6v-0.6c0.3-0.1,0.6-0.2,0.8-0.3l0.5,0.5
					l0.4-0.4L19,13.7c0.2-0.2,0.3-0.5,0.3-0.8H20z"/>
				<path fill="none" stroke="#FFD300" stroke-width="0.8" stroke-miterlimit="10" d="M11,16.1c0,0.6-0.5,1.2-1.2,1.2
					s-1.2-0.5-1.2-1.2c0-0.6,0.5-1.2,1.2-1.2S11,15.5,11,16.1z"/>
				<path fill="none" stroke="#FFD300" stroke-width="0.8" stroke-miterlimit="10" d="M18.4,12.6c0,0.5-0.4,0.9-0.9,0.9
					c-0.5,0-0.9-0.4-0.9-0.9c0-0.5,0.4-0.9,0.9-0.9C18,11.7,18.4,12.1,18.4,12.6z"/>
				<path fill="#FF580E" d="M12.3,9.8c-0.3,0-0.6-0.3-0.6-0.6s0.3-0.6,0.6-0.6c0.3,0,0.6,0.3,0.6,0.6S12.7,9.8,12.3,9.8z M14.8,9.5
					V8.9h-0.6c-0.1-0.3-0.2-0.6-0.3-0.8l0.5-0.5l-0.4-0.4l-0.5,0.5c-0.2-0.2-0.5-0.3-0.8-0.3V6.7H12v0.6c-0.3,0.1-0.6,0.2-0.8,0.3
					l-0.5-0.5l-0.4,0.4l0.5,0.5c-0.2,0.2-0.3,0.5-0.3,0.8H9.9v0.6h0.6c0.1,0.3,0.2,0.6,0.3,0.8l-0.5,0.5l0.4,0.4l0.5-0.5
					c0.2,0.2,0.5,0.3,0.8,0.3v0.6h0.6V11c0.3-0.1,0.6-0.2,0.8-0.3l0.5,0.5l0.4-0.4l-0.5-0.5c0.2-0.2,0.3-0.5,0.3-0.8H14.8z"/>
				<path fill="none" stroke="#FFD300" stroke-width="0.8" stroke-miterlimit="10" d="M13,9.2c0,0.4-0.3,0.7-0.7,0.7
					c-0.4,0-0.7-0.3-0.7-0.7s0.3-0.7,0.7-0.7C12.7,8.5,13,8.8,13,9.2z"/>
			</g>
		</g>
	</g>
</g>
</svg>
