<?xml version="1.0" encoding="utf-8"?>
<!-- Generator: Adobe Illustrator 22.0.1, SVG Export Plug-In . SVG Version: 6.00 Build 0)  -->
<svg version="1.1" xmlns="http://www.w3.org/2000/svg" xmlns:xlink="http://www.w3.org/1999/xlink" x="0px" y="0px"
	 viewBox="0 0 20 20" enable-background="new 0 0 20 20" xml:space="preserve">
<g id="Layer_1">
</g>
<g id="Layer_2">
</g>
<g id="_x32_0px_borderframes" display="none">
</g>
<g id="Layer_3">
	<g>
		<g>
			<polygon fill="#BBBBBB" points="11,16 11,4.3 12.5,4.3 12.5,3.4 10,3.4 10,9 3.6,9 3.6,10 10,10 10,17 14.5,17 14.5,16 			"/>
			<path fill="#2473E4" d="M14.2,13.7h5.3c0.3,0,0.5,0.2,0.5,0.5v5.3c0,0.3-0.2,0.5-0.5,0.5h-5.3c-0.3,0-0.5-0.2-0.5-0.5v-5.3
				C13.7,13.9,13.9,13.7,14.2,13.7z"/>
			<path fill="#B464BF" d="M8.2,9.8l-3.7,3.7c-0.2,0.2-0.5,0.2-0.7,0L0.1,9.8C0,9.6,0,9.3,0.1,9.1l3.7-3.7c0.2-0.2,0.5-0.2,0.7,0
				l3.7,3.7C8.4,9.3,8.4,9.6,8.2,9.8z"/>
			<g>
				<path fill="#FF7D00" d="M16.2,4.8c-0.5,0-0.9-0.4-0.9-0.9s0.4-0.9,0.9-0.9c0.5,0,0.9,0.4,0.9,0.9S16.7,4.8,16.2,4.8z M20,4.3
					V3.4h-1c-0.1-0.4-0.2-0.9-0.5-1.2l0.7-0.7l-0.7-0.7l-0.7,0.7c-0.3-0.2-0.8-0.4-1.2-0.5v-1h-0.9v1c-0.4,0.1-0.9,0.2-1.2,0.5
					l-0.7-0.7l-0.7,0.7l0.7,0.7c-0.2,0.3-0.4,0.8-0.5,1.2h-1v0.9h1c0.1,0.4,0.2,0.9,0.5,1.2l-0.7,0.7l0.7,0.7l0.7-0.7
					c0.3,0.2,0.8,0.4,1.2,0.5v1h0.9v-1c0.4-0.1,0.9-0.2,1.2-0.5l0.7,0.7l0.7-0.7l-0.7-0.7C18.8,5.2,19,4.7,19,4.3H20z"/>
				<path fill="#DC370C" d="M16.2,2.4c-0.8,0-1.5,0.7-1.5,1.5s0.7,1.5,1.5,1.5s1.5-0.7,1.5-1.5S17,2.4,16.2,2.4z M16.2,4.5
					c-0.4,0-0.7-0.3-0.7-0.7s0.3-0.7,0.7-0.7s0.7,0.3,0.7,0.7S16.6,4.5,16.2,4.5z"/>
			</g>
		</g>
	</g>
</g>
</svg>
