<?xml version="1.0" encoding="utf-8"?>
<!-- Generator: Adobe Illustrator 19.2.1, SVG Export Plug-In . SVG Version: 6.00 Build 0)  -->
<svg version="1.1" id="Layer_1" xmlns="http://www.w3.org/2000/svg" xmlns:xlink="http://www.w3.org/1999/xlink" x="0px" y="0px"
	 viewBox="0 0 20 20" enable-background="new 0 0 20 20" xml:space="preserve">
<g>
	<path fill="#CCCCCC" d="M10.9,9.1c-0.5-0.5-1.3-0.5-1.8,0l-8.7,8.7c-0.5,0.5-0.5,1.3,0,1.8c0.5,0.5,1.3,0.5,1.8,0l8.7-8.7
		C11.4,10.4,11.4,9.6,10.9,9.1z"/>
	<path fill-rule="evenodd" clip-rule="evenodd" fill="#FFCC66" d="M19.8,3.3c-0.2-0.2-0.6-0.2-0.9,0l-6.9,6.9
		c-0.2,0.2-0.2,0.6,0,0.9c0.2,0.2,0.6,0.2,0.9,0l6.9-6.9C20.1,3.9,20.1,3.6,19.8,3.3z M16.1,0.2c-0.2-0.2-0.6-0.2-0.9,0L8.3,7.1
		C8.1,7.3,8.1,7.7,8.3,8s0.6,0.2,0.9,0l6.9-6.9C16.3,0.8,16.3,0.4,16.1,0.2z"/>
	<path fill="#808080" d="M10.2,2.5L6.5,6.2c-2,2-2,5.3,0,7.3c2,2,5.3,2,7.3,0l3.7-3.6L10.2,2.5z"/>
	<path fill="#999999" d="M10.6,5L8.4,7.2c-1.2,1.2-1.2,3.2,0,4.4c1.2,1.2,3.2,1.2,4.4,0L15,9.4L10.6,5z"/>
	<path fill="#808080" d="M17.7,9.1l-6.8-6.8c-0.5-0.5-1.3-0.5-1.8,0C8.6,2.7,8.6,3.5,9.1,4l6.8,6.8c0.5,0.5,1.3,0.5,1.8,0
		C18.2,10.4,18.2,9.6,17.7,9.1z"/>
</g>
</svg>
