<?xml version="1.0" encoding="utf-8"?>
<!-- Generator: Adobe Illustrator 22.0.1, SVG Export Plug-In . SVG Version: 6.00 Build 0)  -->
<svg version="1.1" xmlns="http://www.w3.org/2000/svg" xmlns:xlink="http://www.w3.org/1999/xlink" x="0px" y="0px"
	 viewBox="0 0 20 20" enable-background="new 0 0 20 20" xml:space="preserve">
<g id="Layer_1">
</g>
<g id="Layer_2">
</g>
<g id="_x32_0px_borderframes" display="none">
</g>
<g id="Layer_3">
	<g>
		<path fill="#2473E4" d="M18,15.8H2c-1.1,0-2-0.9-2-2V3.3c0-1.1,0.9-2,2-2h16c1.1,0,2,0.9,2,2v10.5C20,14.9,19.1,15.8,18,15.8z"/>
		<path fill="#67B7F9" d="M2,14.8c-0.6,0-1-0.4-1-1V3.3c0-0.6,0.4-1,1-1h16c0.6,0,1,0.4,1,1v10.5c0,0.6-0.4,1-1,1H2z"/>
		<path fill="#FFFFFF" d="M13.5,7.3h3c0.3,0,0.5-0.2,0.5-0.5v-3c0-0.3-0.2-0.5-0.5-0.5h-3c-0.3,0-0.5,0.2-0.5,0.5v1.5h-1.3h-1v1v1.5
			h-2L6.4,5.5c-0.2-0.2-0.6-0.2-0.8,0L3.2,7.9c-0.2,0.2-0.2,0.6,0,0.8l2.4,2.4c0.2,0.2,0.6,0.2,0.8,0l2.3-2.3h2v1.5v1h1H13v1.5
			c0,0.3,0.2,0.5,0.5,0.5h3c0.3,0,0.5-0.2,0.5-0.5v-3c0-0.3-0.2-0.5-0.5-0.5h-3c-0.3,0-0.5,0.2-0.5,0.5v0.5h-1.3v-4H13v0.5
			C13,7.1,13.2,7.3,13.5,7.3z M6,10.2L4.2,8.3L6,6.5l1.8,1.8L6,10.2z M16,10.3v2h-2v-1v-1H16z M14,4.3h2v2h-2v-1V4.3z"/>
		<path fill="#2473E4" d="M14.7,19.2c0-1.1-2.1-2-4.8-2s-4.8,0.9-4.8,2H14.7z"/>
	</g>
</g>
</svg>
