<?xml version="1.0" encoding="utf-8"?>
<!-- Generator: Adobe Illustrator 22.0.1, SVG Export Plug-In . SVG Version: 6.00 Build 0)  -->
<svg version="1.1" xmlns="http://www.w3.org/2000/svg" xmlns:xlink="http://www.w3.org/1999/xlink" x="0px" y="0px"
	 viewBox="0 0 20 20" enable-background="new 0 0 20 20" xml:space="preserve">
<g id="Layer_1">
	<g>
		<path fill="#BBBBBB" d="M15.2,8.5L7.9,4.7L7.6,5.2l0.6,0.3L6.6,12l0.6,0.1l0.2,0.4L15,9.2l-0.1-0.1L15.2,8.5z M7.3,11.8l1.5-6
			l5.6,2.9L7.3,11.8z"/>
		<path fill="#FF7D00" d="M5.6,15.3c-0.8,0-1.4-0.6-1.4-1.4c0-0.8,0.6-1.4,1.4-1.4c0.8,0,1.4,0.6,1.4,1.4
			C6.9,14.7,6.3,15.3,5.6,15.3z M11.1,14.9V13H9.6c-0.1-0.5-0.3-0.9-0.6-1.3l1.1-1.1L8.9,9.4l-1.1,1.1C7.4,10.2,6.9,10,6.5,9.9V8.4
			H4.6v1.5c-0.5,0.1-0.9,0.3-1.3,0.6l-1-1L1,10.7l1.1,1.1c-0.2,0.4-0.4,0.8-0.6,1.3H0v1.8h1.5c0.1,0.5,0.3,0.9,0.6,1.3L1,17.3
			l1.2,1.3l1.1-1.1c0.4,0.2,0.8,0.4,1.3,0.6v1.4h1.8V18c0.5-0.1,0.9-0.3,1.3-0.6l1.1,1.1l1.2-1.3L9,16.2c0.3-0.4,0.5-0.9,0.6-1.3
			L11.1,14.9L11.1,14.9z"/>
		<path fill="#FF7D00" d="M16.5,9.8c-0.5,0-0.9-0.4-0.9-0.9C15.6,8.4,16,8,16.5,8c0.5,0,0.9,0.4,0.9,0.9C17.4,9.4,17,9.8,16.5,9.8z
			 M20,9.4V8.5h-0.9c-0.1-0.4-0.2-0.8-0.4-1.1l0.7-0.7l-0.6-0.6l-0.7,0.7c-0.3-0.2-0.7-0.4-1.1-0.4V5.4h-0.9v0.9
			c-0.4,0.1-0.8,0.2-1.1,0.4l-0.7-0.7l-0.6,0.6l0.7,0.7c-0.2,0.3-0.4,0.7-0.4,1.1H13v0.9h0.9c0.1,0.4,0.2,0.8,0.4,1.1l-0.7,0.7
			l0.6,0.6l0.7-0.7c0.3,0.2,0.7,0.4,1.1,0.4v0.9H17v-0.9c0.4-0.1,0.8-0.2,1.1-0.4l0.7,0.7l0.6-0.6l-0.7-0.7c0.2-0.3,0.4-0.7,0.4-1.1
			H20z"/>
		<path fill="#FFD300" d="M16.5,7.2c-0.9,0-1.7,0.8-1.7,1.7c0,0.9,0.8,1.7,1.7,1.7c0.9,0,1.7-0.8,1.7-1.7C18.2,8,17.5,7.2,16.5,7.2z
			 M16.5,9.8c-0.5,0-0.9-0.4-0.9-0.9C15.6,8.4,16,8,16.5,8c0.5,0,0.9,0.4,0.9,0.9C17.4,9.4,17,9.8,16.5,9.8z"/>
		<path fill="#FF7D00" d="M9.1,4.9C8.6,4.9,8.2,4.5,8.2,4s0.4-0.9,0.9-0.9C9.6,3.1,10,3.5,10,4S9.6,4.9,9.1,4.9z M12.6,4.5V3.6h-0.9
			c-0.1-0.4-0.2-0.8-0.4-1.1l0.7-0.7l-0.6-0.6l-0.7,0.7c-0.3-0.2-0.7-0.4-1.1-0.4V0.5H8.6v0.9C8.2,1.5,7.8,1.6,7.5,1.9L6.9,1.2
			L6.3,1.8l0.7,0.7C6.7,2.8,6.5,3.2,6.5,3.6H5.6v0.9h0.9c0.1,0.4,0.2,0.8,0.4,1.1L6.3,6.2l0.6,0.6l0.7-0.7c0.3,0.2,0.7,0.4,1.1,0.4
			v0.9h0.9V6.6c0.4-0.1,0.8-0.2,1.1-0.4l0.7,0.7l0.6-0.6l-0.7-0.7c0.2-0.3,0.4-0.7,0.4-1.1H12.6z"/>
		<path fill="#FFD300" d="M9.1,2.6C8.3,2.6,7.7,3.2,7.7,4c0,0.8,0.6,1.4,1.4,1.4c0.8,0,1.4-0.6,1.4-1.4C10.5,3.2,9.8,2.6,9.1,2.6z
			 M9.1,4.6C8.8,4.6,8.5,4.3,8.5,4c0-0.3,0.3-0.6,0.6-0.6c0.3,0,0.6,0.3,0.6,0.6C9.7,4.3,9.4,4.6,9.1,4.6z"/>
		<path fill="#FFD300" d="M5.6,11.9c-1.2,0-2.1,0.9-2.1,2.1c0,1.2,0.9,2.1,2.1,2.1c1.2,0,2.1-0.9,2.1-2.1
			C7.7,12.8,6.7,11.9,5.6,11.9z M5.6,15.2c-0.7,0-1.3-0.6-1.3-1.3c0-0.7,0.6-1.3,1.3-1.3c0.7,0,1.3,0.6,1.3,1.3
			C6.8,14.7,6.3,15.2,5.6,15.2z"/>
	</g>
</g>
<g id="Layer_2">
</g>
<g id="_x32_0px_borderframes" display="none">
</g>
<g id="Layer_3">
</g>
</svg>
